<svg xmlns="http://www.w3.org/2000/svg" width="309" height="345" viewBox="0 0 309 345" fill="none">
<path d="M115 6L121 0.5L158.5 2.5L196.5 0.5L207.5 9L242 25.5L246.5 26.5L264 36L272 44L280.5 73.5L289 113L297 166L304 222L307 256L309 316.5L307 344.5L295 342.5L282.5 339.5L274.5 336.5L276.5 334L277 325L274.5 298L264 229.5L261 222L256 196L254.5 186L248 167.5L245 156L240.5 151H237.5L235 186L233 206.5V222L235 246L238.5 269L243 291L248 328L250.5 334.5L246.5 336.5L233.5 339.5L219 341.5H134L91.5 343.5L78.5 341.5L70 337.5L67 333.5L68.5 328L78.5 253.5L80 212.5L74.5 145H73.5L64 172L54.5 204.5L48 238.5L42 265L33.5 301.5L32 321.5V325L33.5 330L32 333.5L15 339H1.5L0 328L1.5 281.5L5.5 233.5L12 193.5L19.5 152.5L27.5 109L35 73L43.5 48L55 36L74 27L96 14.5L115 6Z" fill="none"/>
</svg>